<svg xmlns="http://www.w3.org/2000/svg" width="24" height="24" viewBox="0 0 24 24">
    <path d="M 0 0 H 24 V 1 H 1 V 24 H 0 Z" />
    <path d="M 2 2 H 24 V 3 H 3 V 24 H 2 Z" />
    <path d="M 4 4 H 24 V 5 H 5 V 24 H 4 Z" />
    <path d="M 6 6 H 24 V 7 H 7 V 24 H 6 Z" />
    <path d="M 8 8 H 24 V 9 H 9 V 24 H 8 Z" />
    <path d="M 10 10 H 24 V 11 H 11 V 24 H 10 Z" />
    <path d="M 12 12 H 24 V 13 H 13 V 24 H 12 Z" />
    <path d="M 14 14 H 24 V 15 H 15 V 24 H 14 Z" />
    <path d="M 16 16 H 24 V 17 H 17 V 24 H 16 Z" />
    <path d="M 18 18 H 24 V 19 H 19 V 24 H 18 Z" />
    <path d="M 20 20 H 24 V 21 H 21 V 24 H 20 Z" />
    <path d="M 22 22 H 24 V 23 H 23 V 24 H 22 Z" />
</svg>
